<svg version="1.1" viewBox="0.0 0.0 494.11548556430444 492.8320209973753" fill="none" stroke="none" stroke-linecap="square" stroke-miterlimit="10" xmlns:xlink="http://www.w3.org/1999/xlink" xmlns="http://www.w3.org/2000/svg"><clipPath id="p.0"><path d="m0 0l494.11548 0l0 492.83203l-494.11548 0l0 -492.83203z" clip-rule="nonzero"/></clipPath><g clip-path="url(#p.0)"><path fill="#000000" fill-opacity="0.0" d="m0 0l494.11548 0l0 492.83203l-494.11548 0z" fill-rule="evenodd"/><path fill="#000000" fill-opacity="0.0" d="m8.0 177.10236l0 0c0 -93.39265 74.567505 -169.10236 166.55118 -169.10236l0 0c44.17212 0 86.535065 17.81609 117.76947 49.528934c31.234406 31.712849 48.781708 74.7247 48.781708 119.573425l0 0c0 93.39267 -74.567505 169.10236 -166.55118 169.10236l0 0c-91.98367 0 -166.55118 -75.70969 -166.55118 -169.10236z" fill-rule="evenodd"/><path stroke="#000000" stroke-width="24.0" stroke-linejoin="round" stroke-linecap="butt" d="m8.0 177.10236l0 0c0 -93.39265 74.567505 -169.10236 166.55118 -169.10236l0 0c44.17212 0 86.535065 17.81609 117.76947 49.528934c31.234406 31.712849 48.781708 74.7247 48.781708 119.573425l0 0c0 93.39267 -74.567505 169.10236 -166.55118 169.10236l0 0c-91.98367 0 -166.55118 -75.70969 -166.55118 -169.10236z" fill-rule="evenodd"/><path fill="#000000" fill-opacity="0.0" d="m292.32065 296.67578l196.09448 190.4567" fill-rule="evenodd"/><path stroke="#000000" stroke-width="24.0" stroke-linejoin="round" stroke-linecap="butt" d="m292.32065 296.67578l196.09448 190.4567" fill-rule="evenodd"/></g></svg>