<svg version="1.1" viewBox="0.0 0.0 740.6797900262467 745.8923884514436" fill="none" stroke="none" stroke-linecap="square" stroke-miterlimit="10" xmlns:xlink="http://www.w3.org/1999/xlink" xmlns="http://www.w3.org/2000/svg"><clipPath id="p.0"><path d="m0 0l740.6798 0l0 745.8924l-740.6798 0l0 -745.8924z" clip-rule="nonzero"/></clipPath><g clip-path="url(#p.0)"><path fill="#000000" fill-opacity="0.0" d="m0 0l740.6798 0l0 745.8924l-740.6798 0z" fill-rule="evenodd"/><path fill="#000000" fill-opacity="0.0" d="m16.0 245.29134l0 0c0 -126.63411 106.133194 -229.29134 237.05511 -229.29134l0 0c62.87094 0 123.16684 24.15741 167.62329 67.157875c44.45645 43.000473 69.43182 101.32162 69.43182 162.13345l0 0c0 126.63411 -106.13318 229.29134 -237.05511 229.29134l0 0c-130.92192 0 -237.05511 -102.65723 -237.05511 -229.29134z" fill-rule="evenodd"/><path stroke="#000000" stroke-width="24.0" stroke-linejoin="round" stroke-linecap="butt" d="m16.0 245.29134l0 0c0 -126.63411 106.133194 -229.29134 237.05511 -229.29134l0 0c62.87094 0 123.16684 24.15741 167.62329 67.157875c44.45645 43.000473 69.43182 101.32162 69.43182 162.13345l0 0c0 126.63411 -106.13318 229.29134 -237.05511 229.29134l0 0c-130.92192 0 -237.05511 -102.65723 -237.05511 -229.29134z" fill-rule="evenodd"/><path fill="#000000" fill-opacity="0.0" d="m420.6784 407.4248l298.96063 312.22046" fill-rule="evenodd"/><path stroke="#000000" stroke-width="24.0" stroke-linejoin="round" stroke-linecap="butt" d="m420.6784 407.4248l298.96063 312.22046" fill-rule="evenodd"/><path fill="#000000" fill-opacity="0.0" d="m27.286089 243.85301l0 0c0 -119.6327 101.34581 -216.61417 226.36221 -216.61417l0 0c60.03499 0 117.6111 22.821785 160.06224 63.444824c42.45114 40.62303 66.29996 95.719696 66.29996 153.16934l0 0c0 119.632706 -101.345825 216.61418 -226.3622 216.61418l0 0c-125.0164 0 -226.36221 -96.981476 -226.36221 -216.61418z" fill-rule="evenodd"/><path stroke="#000000" stroke-width="24.0" stroke-linejoin="round" stroke-linecap="butt" d="m27.286089 243.85301l0 0c0 -119.6327 101.34581 -216.61417 226.36221 -216.61417l0 0c60.03499 0 117.6111 22.821785 160.06224 63.444824c42.45114 40.62303 66.29996 95.719696 66.29996 153.16934l0 0c0 119.632706 -101.345825 216.61418 -226.3622 216.61418l0 0c-125.0164 0 -226.36221 -96.981476 -226.36221 -216.61418z" fill-rule="evenodd"/><path fill="#000000" fill-opacity="0.0" d="m431.4894 396.18594l298.96066 312.2205" fill-rule="evenodd"/><path stroke="#000000" stroke-width="24.0" stroke-linejoin="round" stroke-linecap="butt" d="m431.4894 396.18594l298.96066 312.2205" fill-rule="evenodd"/><path fill="#000000" fill-opacity="0.0" d="m404.6784 423.4248l298.96063 312.22046" fill-rule="evenodd"/><path stroke="#000000" stroke-width="24.0" stroke-linejoin="round" stroke-linecap="butt" d="m404.6784 423.4248l298.96063 312.22046" fill-rule="evenodd"/><path fill="#000000" fill-opacity="0.0" d="m47.829395 243.54855l0 0c0 -112.518234 91.51723 -203.73228 204.40945 -203.73228l0 0c54.212753 0 106.20509 21.464588 144.53932 59.671803c38.334198 38.207222 59.870117 90.02732 59.870117 144.06049l0 0c0 112.51825 -91.51721 203.7323 -204.40944 203.7323l0 0c-112.89223 0 -204.40945 -91.21405 -204.40945 -203.7323z" fill-rule="evenodd"/><path stroke="#000000" stroke-width="24.0" stroke-linejoin="round" stroke-linecap="butt" d="m47.829395 243.54855l0 0c0 -112.518234 91.51723 -203.73228 204.40945 -203.73228l0 0c54.212753 0 106.20509 21.464588 144.53932 59.671803c38.334198 38.207222 59.870117 90.02732 59.870117 144.06049l0 0c0 112.51825 -91.51721 203.7323 -204.40944 203.7323l0 0c-112.89223 0 -204.40945 -91.21405 -204.40945 -203.7323z" fill-rule="evenodd"/></g></svg>